ISO-10303-21;
HEADER;
FILE_DESCRIPTION (( 'STEP AP214' ),
    '1' );
FILE_NAME ('Part3.STEP',
    '2026-02-03T08:54:47',
    ( '' ),
    ( '' ),
    'SwSTEP 2.0',
    'SolidWorks 2022',
    '' );
FILE_SCHEMA (( 'AUTOMOTIVE_DESIGN' ));
ENDSEC;

DATA;
#1 = APPLICATION_CONTEXT ( 'automotive_design' ) ;
#2 = CARTESIAN_POINT ( 'NONE',  ( 5.500000000000001776, -24.50000000000000000, -6.656854249492384135 ) ) ;
#3 = VECTOR ( 'NONE', #354, 1000.000000000000000 ) ;
#4 = EDGE_CURVE ( 'NONE', #223, #342, #349, .T. ) ;
#5 = EDGE_LOOP ( 'NONE', ( #516, #508, #555, #83 ) ) ;
#6 = CARTESIAN_POINT ( 'NONE',  ( 9.999999999999994671, 10.00000000000000178, -1.000000000000000000 ) ) ;
#7 = CARTESIAN_POINT ( 'NONE',  ( -15.00000000000000355, 10.00000000000000178, -1.000000000000000000 ) ) ;
#8 = EDGE_LOOP ( 'NONE', ( #437, #151 ) ) ;
#9 = LINE ( 'NONE', #175, #563 ) ;
#10 = CARTESIAN_POINT ( 'NONE',  ( -1.734723475976807094E-15, 0.000000000000000000, 1.000000000000000000 ) ) ;
#11 = EDGE_CURVE ( 'NONE', #84, #303, #430, .T. ) ;
#12 = DIRECTION ( 'NONE',  ( 0.000000000000000000, -0.000000000000000000, -1.000000000000000000 ) ) ;
#13 = DIRECTION ( 'NONE',  ( 0.000000000000000000, 0.000000000000000000, 1.000000000000000000 ) ) ;
#14 = DIRECTION ( 'NONE',  ( 1.000000000000000000, 0.000000000000000000, 0.000000000000000000 ) ) ;
#15 = DIRECTION ( 'NONE',  ( 1.000000000000000000, 0.000000000000000000, 0.000000000000000000 ) ) ;
#16 = CARTESIAN_POINT ( 'NONE',  ( -7.500000000000004441, -24.50000000000000355, -6.656854249492384135 ) ) ;
#17 = CARTESIAN_POINT ( 'NONE',  ( 0.000000000000000000, 0.000000000000000000, 1.000000000000000000 ) ) ;
#18 = VECTOR ( 'NONE', #310, 1000.000000000000000 ) ;
#19 = AXIS2_PLACEMENT_3D ( 'NONE', #407, #13, #367 ) ;
#20 = CARTESIAN_POINT ( 'NONE',  ( 14.99999999999999645, 10.00000000000000178, 1.000000000000000000 ) ) ;
#21 = ADVANCED_FACE ( 'NONE', ( #44 ), #392, .T. ) ;
#22 = AXIS2_PLACEMENT_3D ( 'NONE', #197, #142, #494 ) ;
#23 = AXIS2_PLACEMENT_3D ( 'NONE', #285, #370, #322 ) ;
#24 = CYLINDRICAL_SURFACE ( 'NONE', #136, 1.999999999999997335 ) ;
#25 = CARTESIAN_POINT ( 'NONE',  ( 14.99999999999999645, 10.00000000000000178, -1.000000000000000000 ) ) ;
#26 = ORIENTED_EDGE ( 'NONE', *, *, #537, .T. ) ;
#27 = FACE_BOUND ( 'NONE', #309, .T. ) ;
#28 = CARTESIAN_POINT ( 'NONE',  ( 9.999999999999994671, 15.00000000000000178, -1.000000000000000000 ) ) ;
#29 = CIRCLE ( 'NONE', #188, 2.000000000000000888 ) ;
#30 = EDGE_CURVE ( 'NONE', #79, #478, #423, .T. ) ;
#31 = FACE_OUTER_BOUND ( 'NONE', #207, .T. ) ;
#32 = DIRECTION ( 'NONE',  ( 1.000000000000000000, 0.000000000000000000, 0.000000000000000000 ) ) ;
#33 = AXIS2_PLACEMENT_3D ( 'NONE', #525, #320, #95 ) ;
#34 = CIRCLE ( 'NONE', #22, 2.000000000000000000 ) ;
#35 = AXIS2_PLACEMENT_3D ( 'NONE', #170, #368, #535 ) ;
#36 = FILL_AREA_STYLE ('',( #296 ) ) ;
#37 = DIRECTION ( 'NONE',  ( 0.000000000000000000, 0.000000000000000000, -1.000000000000000000 ) ) ;
#38 = EDGE_CURVE ( 'NONE', #84, #223, #451, .T. ) ;
#39 = ORIENTED_EDGE ( 'NONE', *, *, #262, .T. ) ;
#40 = VECTOR ( 'NONE', #416, 1000.000000000000000 ) ;
#41 = ORIENTED_EDGE ( 'NONE', *, *, #132, .T. ) ;
#42 = APPLICATION_PROTOCOL_DEFINITION ( 'draft international standard', 'automotive_design', 1998, #105 ) ;
#43 = ORIENTED_EDGE ( 'NONE', *, *, #553, .F. ) ;
#44 = FACE_OUTER_BOUND ( 'NONE', #337, .T. ) ;
#45 = DIRECTION ( 'NONE',  ( 0.000000000000000000, -0.000000000000000000, -1.000000000000000000 ) ) ;
#46 = EDGE_LOOP ( 'NONE', ( #214, #43 ) ) ;
#47 = CARTESIAN_POINT ( 'NONE',  ( 13.00000000000000178, -32.00000000000000000, 0.000000000000000000 ) ) ;
#48 = VERTEX_POINT ( 'NONE', #339 ) ;
#49 = EDGE_CURVE ( 'NONE', #292, #284, #510, .T. ) ;
#50 = CYLINDRICAL_SURFACE ( 'NONE', #375, 9.500000000000000000 ) ;
#51 = ORIENTED_EDGE ( 'NONE', *, *, #115, .T. ) ;
#52 = CYLINDRICAL_SURFACE ( 'NONE', #518, 2.000000000000000888 ) ;
#53 = LINE ( 'NONE', #366, #101 ) ;
#54 = VERTEX_POINT ( 'NONE', #269 ) ;
#55 =( LENGTH_UNIT ( ) NAMED_UNIT ( * ) SI_UNIT ( .MILLI., .METRE. ) );
#56 = CYLINDRICAL_SURFACE ( 'NONE', #276, 5.000000000000000000 ) ;
#57 =( NAMED_UNIT ( * ) PLANE_ANGLE_UNIT ( ) SI_UNIT ( $, .RADIAN. ) );
#58 = ADVANCED_FACE ( 'NONE', ( #99 ), #135, .F. ) ;
#59 = LINE ( 'NONE', #2, #220 ) ;
#60 = DIRECTION ( 'NONE',  ( -0.000000000000000000, -0.000000000000000000, 1.000000000000000000 ) ) ;
#61 = DIRECTION ( 'NONE',  ( -1.000000000000000000, 0.000000000000000000, 0.000000000000000000 ) ) ;
#62 = DIRECTION ( 'NONE',  ( 0.000000000000000000, -0.000000000000000000, -1.000000000000000000 ) ) ;
#63 = FACE_OUTER_BOUND ( 'NONE', #257, .T. ) ;
#64 = FACE_OUTER_BOUND ( 'NONE', #254, .T. ) ;
#65 = EDGE_CURVE ( 'NONE', #531, #168, #352, .T. ) ;
#66 = LINE ( 'NONE', #106, #159 ) ;
#67 = LINE ( 'NONE', #544, #70 ) ;
#68 = EDGE_CURVE ( 'NONE', #461, #465, #488, .T. ) ;
#69 = CARTESIAN_POINT ( 'NONE',  ( 7.499999999999999112, -24.50000000000000000, -6.656854249492384135 ) ) ;
#70 = VECTOR ( 'NONE', #147, 1000.000000000000000 ) ;
#71 = MECHANICAL_DESIGN_GEOMETRIC_PRESENTATION_REPRESENTATION (  '', ( #439 ), #459 ) ;
#72 = ADVANCED_BREP_SHAPE_REPRESENTATION ( 'Part3', ( #360, #19 ), #114 ) ;
#73 = CIRCLE ( 'NONE', #415, 1.999999999999997335 ) ;
#74 = EDGE_CURVE ( 'NONE', #340, #517, #108, .T. ) ;
#75 = CARTESIAN_POINT ( 'NONE',  ( -15.00000000000000355, 15.00000000000000178, -1.000000000000000000 ) ) ;
#76 = DIRECTION ( 'NONE',  ( -0.000000000000000000, -0.000000000000000000, 1.000000000000000000 ) ) ;
#77 = ORIENTED_EDGE ( 'NONE', *, *, #30, .F. ) ;
#78 = CARTESIAN_POINT ( 'NONE',  ( -12.99999999999999822, -34.00000000000000000, 1.000000000000000000 ) ) ;
#79 = VERTEX_POINT ( 'NONE', #263 ) ;
#80 = ORIENTED_EDGE ( 'NONE', *, *, #4, .F. ) ;
#81 = DIRECTION ( 'NONE',  ( 0.000000000000000000, -0.000000000000000000, -1.000000000000000000 ) ) ;
#82 = ORIENTED_EDGE ( 'NONE', *, *, #191, .T. ) ;
#83 = ORIENTED_EDGE ( 'NONE', *, *, #456, .T. ) ;
#84 = VERTEX_POINT ( 'NONE', #7 ) ;
#85 = EDGE_CURVE ( 'NONE', #429, #290, #275, .T. ) ;
#86 = ORIENTED_EDGE ( 'NONE', *, *, #333, .F. ) ;
#87 = ORIENTED_EDGE ( 'NONE', *, *, #495, .F. ) ;
#88 = CARTESIAN_POINT ( 'NONE',  ( -9.500000000000005329, -24.50000000000000355, -6.656854249492384135 ) ) ;
#89 = CIRCLE ( 'NONE', #412, 1.999999999999997335 ) ;
#90 = CARTESIAN_POINT ( 'NONE',  ( -9.500000000000001776, 0.000000000000000000, 1.000000000000000000 ) ) ;
#91 = ORIENTED_EDGE ( 'NONE', *, *, #424, .F. ) ;
#92 = DIRECTION ( 'NONE',  ( -0.000000000000000000, -0.000000000000000000, -1.000000000000000000 ) ) ;
#93 = EDGE_CURVE ( 'NONE', #524, #303, #143, .T. ) ;
#94 = DIRECTION ( 'NONE',  ( 0.000000000000000000, -0.000000000000000000, -1.000000000000000000 ) ) ;
#95 = DIRECTION ( 'NONE',  ( 1.000000000000000000, 0.000000000000000000, 0.000000000000000000 ) ) ;
#96 = SURFACE_STYLE_USAGE ( .BOTH. , #318 ) ;
#97 = DIRECTION ( 'NONE',  ( -0.000000000000000000, 0.000000000000000000, 1.000000000000000000 ) ) ;
#98 = AXIS2_PLACEMENT_3D ( 'NONE', #6, #186, #527 ) ;
#99 = FACE_OUTER_BOUND ( 'NONE', #474, .T. ) ;
#100 = AXIS2_PLACEMENT_3D ( 'NONE', #406, #536, #319 ) ;
#101 = VECTOR ( 'NONE', #485, 1000.000000000000000 ) ;
#102 = ADVANCED_FACE ( 'NONE', ( #180 ), #50, .F. ) ;
#103 = DIRECTION ( 'NONE',  ( 1.000000000000000000, 0.000000000000000000, 0.000000000000000000 ) ) ;
#104 = DIRECTION ( 'NONE',  ( 1.000000000000000000, 0.000000000000000000, 0.000000000000000000 ) ) ;
#105 = APPLICATION_CONTEXT ( 'automotive_design' ) ;
#106 = CARTESIAN_POINT ( 'NONE',  ( -15.00000000000000000, -34.00000000000000000, -1.000000000000000000 ) ) ;
#107 = EDGE_CURVE ( 'NONE', #531, #48, #227, .T. ) ;
#108 = CIRCLE ( 'NONE', #169, 2.000000000000000000 ) ;
#109 = DIRECTION ( 'NONE',  ( 1.000000000000000000, 0.000000000000000000, 0.000000000000000000 ) ) ;
#110 = FACE_BOUND ( 'NONE', #166, .T. ) ;
#111 = CYLINDRICAL_SURFACE ( 'NONE', #521, 2.000000000000000888 ) ;
#112 = CIRCLE ( 'NONE', #328, 1.999999999999997335 ) ;
#113 = ORIENTED_EDGE ( 'NONE', *, *, #107, .F. ) ;
#114 =( GEOMETRIC_REPRESENTATION_CONTEXT ( 3 ) GLOBAL_UNCERTAINTY_ASSIGNED_CONTEXT ( ( #468 ) ) GLOBAL_UNIT_ASSIGNED_CONTEXT ( ( #428, #117, #212 ) ) REPRESENTATION_CONTEXT ( 'NONE', 'WORKASPACE' ) );
#115 = EDGE_CURVE ( 'NONE', #520, #290, #323, .T. ) ;
#116 = CARTESIAN_POINT ( 'NONE',  ( 14.99999999999999645, 15.00000000000000178, 1.000000000000000000 ) ) ;
#117 =( NAMED_UNIT ( * ) PLANE_ANGLE_UNIT ( ) SI_UNIT ( $, .RADIAN. ) );
#118 = ORIENTED_EDGE ( 'NONE', *, *, #462, .F. ) ;
#119 = VERTEX_POINT ( 'NONE', #90 ) ;
#120 = DIRECTION ( 'NONE',  ( 0.000000000000000000, 0.000000000000000000, 1.000000000000000000 ) ) ;
#121 = ORIENTED_EDGE ( 'NONE', *, *, #350, .T. ) ;
#122 = STYLED_ITEM ( 'NONE', ( #356 ), #360 ) ;
#123 = EDGE_LOOP ( 'NONE', ( #552, #256, #299, #149 ) ) ;
#124 = DIRECTION ( 'NONE',  ( 1.000000000000000000, 0.000000000000000000, 0.000000000000000000 ) ) ;
#125 = EDGE_CURVE ( 'NONE', #54, #340, #53, .T. ) ;
#126 = VERTEX_POINT ( 'NONE', #398 ) ;
#127 = VECTOR ( 'NONE', #37, 1000.000000000000000 ) ;
#128 = EDGE_LOOP ( 'NONE', ( #287, #26, #422, #158 ) ) ;
#129 = EDGE_LOOP ( 'NONE', ( #171, #436, #564, #86 ) ) ;
#130 = CARTESIAN_POINT ( 'NONE',  ( -5.500000000000003553, -24.50000000000000355, -6.656854249492384135 ) ) ;
#131 = ORIENTED_EDGE ( 'NONE', *, *, #163, .T. ) ;
#132 = EDGE_CURVE ( 'NONE', #326, #167, #59, .T. ) ;
#133 = DIRECTION ( 'NONE',  ( 1.000000000000000000, 0.000000000000000000, 0.000000000000000000 ) ) ;
#134 = FACE_OUTER_BOUND ( 'NONE', #123, .T. ) ;
#135 = CYLINDRICAL_SURFACE ( 'NONE', #33, 1.999999999999997335 ) ;
#136 = AXIS2_PLACEMENT_3D ( 'NONE', #69, #240, #193 ) ;
#137 = DIRECTION ( 'NONE',  ( 1.000000000000000000, 0.000000000000000000, 0.000000000000000000 ) ) ;
#138 = FACE_OUTER_BOUND ( 'NONE', #129, .T. ) ;
#139 = FILL_AREA_STYLE ('',( #270 ) ) ;
#140 = DIRECTION ( 'NONE',  ( 0.000000000000000000, 0.000000000000000000, 1.000000000000000000 ) ) ;
#141 = ADVANCED_FACE ( 'NONE', ( #138 ), #183, .F. ) ;
#142 = DIRECTION ( 'NONE',  ( -0.000000000000000000, 0.000000000000000000, 1.000000000000000000 ) ) ;
#143 = CIRCLE ( 'NONE', #464, 2.000000000000000000 ) ;
#144 = CARTESIAN_POINT ( 'NONE',  ( 0.000000000000000000, 0.000000000000000000, -1.000000000000000000 ) ) ;
#145 = CARTESIAN_POINT ( 'NONE',  ( -12.99999999999999822, -34.00000000000000000, -1.000000000000000000 ) ) ;
#146 = EDGE_CURVE ( 'NONE', #119, #429, #493, .T. ) ;
#147 = DIRECTION ( 'NONE',  ( -0.000000000000000000, -0.000000000000000000, -1.000000000000000000 ) ) ;
#148 = DIRECTION ( 'NONE',  ( 1.000000000000000000, 0.000000000000000000, 0.000000000000000000 ) ) ;
#149 = ORIENTED_EDGE ( 'NONE', *, *, #452, .F. ) ;
#150 = DIRECTION ( 'NONE',  ( 1.000000000000000000, 0.000000000000000000, 0.000000000000000000 ) ) ;
#151 = ORIENTED_EDGE ( 'NONE', *, *, #163, .F. ) ;
#152 = SURFACE_SIDE_STYLE ('',( #384 ) ) ;
#153 = EDGE_CURVE ( 'NONE', #303, #340, #221, .T. ) ;
#154 = CIRCLE ( 'NONE', #98, 5.000000000000000888 ) ;
#155 = DIRECTION ( 'NONE',  ( 1.000000000000000000, 0.000000000000000000, 0.000000000000000000 ) ) ;
#156 = AXIS2_PLACEMENT_3D ( 'NONE', #165, #120, #460 ) ;
#157 = DIRECTION ( 'NONE',  ( 0.000000000000000000, 0.000000000000000000, 1.000000000000000000 ) ) ;
#158 = ORIENTED_EDGE ( 'NONE', *, *, #452, .T. ) ;
#159 = VECTOR ( 'NONE', #238, 1000.000000000000000 ) ;
#160 = ORIENTED_EDGE ( 'NONE', *, *, #338, .F. ) ;
#161 = DIRECTION ( 'NONE',  ( -0.000000000000000000, 0.000000000000000000, 1.000000000000000000 ) ) ;
#162 = ORIENTED_EDGE ( 'NONE', *, *, #513, .F. ) ;
#163 = EDGE_CURVE ( 'NONE', #167, #237, #73, .T. ) ;
#164 = ORIENTED_EDGE ( 'NONE', *, *, #372, .T. ) ;
#165 = CARTESIAN_POINT ( 'NONE',  ( -1.734723475976807094E-15, 0.000000000000000000, -1.000000000000000000 ) ) ;
#166 = EDGE_LOOP ( 'NONE', ( #218, #297 ) ) ;
#167 = VERTEX_POINT ( 'NONE', #445 ) ;
#168 = VERTEX_POINT ( 'NONE', #529 ) ;
#169 = AXIS2_PLACEMENT_3D ( 'NONE', #480, #97, #273 ) ;
#170 = CARTESIAN_POINT ( 'NONE',  ( -1.734723475976807094E-15, 0.000000000000000000, 1.000000000000000000 ) ) ;
#171 = ORIENTED_EDGE ( 'NONE', *, *, #146, .T. ) ;
#172 = SURFACE_STYLE_FILL_AREA ( #139 ) ;
#173 = DIRECTION ( 'NONE',  ( 0.000000000000000000, 0.000000000000000000, 1.000000000000000000 ) ) ;
#174 = ORIENTED_EDGE ( 'NONE', *, *, #65, .T. ) ;
#175 = CARTESIAN_POINT ( 'NONE',  ( -15.00000000000000000, -34.00000000000000000, 1.000000000000000000 ) ) ;
#176 = AXIS2_PLACEMENT_3D ( 'NONE', #545, #546, #150 ) ;
#177 = DIRECTION ( 'NONE',  ( -0.000000000000000000, -0.000000000000000000, 1.000000000000000000 ) ) ;
#178 = APPLICATION_PROTOCOL_DEFINITION ( 'draft international standard', 'automotive_design', 1998, #1 ) ;
#179 = CARTESIAN_POINT ( 'NONE',  ( -14.99999999999999822, -32.00000000000000000, 1.000000000000000000 ) ) ;
#180 = FACE_OUTER_BOUND ( 'NONE', #289, .T. ) ;
#181 = PRODUCT_CONTEXT ( 'NONE', #105, 'mechanical' ) ;
#182 = DIRECTION ( 'NONE',  ( 1.000000000000000000, 0.000000000000000000, 0.000000000000000000 ) ) ;
#183 = CYLINDRICAL_SURFACE ( 'NONE', #35, 9.500000000000000000 ) ;
#184 = ADVANCED_FACE ( 'NONE', ( #312 ), #56, .T. ) ;
#185 = PRODUCT ( 'Part3', 'Part3', '', ( #181 ) ) ;
#186 = DIRECTION ( 'NONE',  ( 0.000000000000000000, -0.000000000000000000, -1.000000000000000000 ) ) ;
#187 = DIRECTION ( 'NONE',  ( -0.000000000000000000, -0.000000000000000000, -1.000000000000000000 ) ) ;
#188 = AXIS2_PLACEMENT_3D ( 'NONE', #487, #226, #446 ) ;
#189 = COLOUR_RGB ( '',0.7921568627450980005, 0.8196078431372548767, 0.9333333333333333481 ) ;
#190 = CYLINDRICAL_SURFACE ( 'NONE', #266, 5.000000000000000888 ) ;
#191 = EDGE_CURVE ( 'NONE', #126, #48, #542, .T. ) ;
#192 = FACE_BOUND ( 'NONE', #205, .T. ) ;
#193 = DIRECTION ( 'NONE',  ( 1.000000000000000000, 0.000000000000000000, 0.000000000000000000 ) ) ;
#194 = FACE_OUTER_BOUND ( 'NONE', #213, .T. ) ;
#195 = CIRCLE ( 'NONE', #231, 2.000000000000000888 ) ;
#196 = AXIS2_PLACEMENT_3D ( 'NONE', #244, #393, #246 ) ;
#197 = CARTESIAN_POINT ( 'NONE',  ( 13.00000000000000178, -32.00000000000000000, 1.000000000000000000 ) ) ;
#198 = AXIS2_PLACEMENT_3D ( 'NONE', #203, #385, #155 ) ;
#199 = DIRECTION ( 'NONE',  ( -0.000000000000000000, -0.000000000000000000, 1.000000000000000000 ) ) ;
#200 = EDGE_CURVE ( 'NONE', #461, #467, #314, .T. ) ;
#201 = CARTESIAN_POINT ( 'NONE',  ( -7.500000000000004441, -24.50000000000000355, -6.656854249492384135 ) ) ;
#202 = ORIENTED_EDGE ( 'NONE', *, *, #30, .T. ) ;
#203 = CARTESIAN_POINT ( 'NONE',  ( -10.00000000000000178, 10.00000000000000178, -1.000000000000000000 ) ) ;
#204 = PLANE ( 'NONE',  #449 ) ;
#205 = EDGE_LOOP ( 'NONE', ( #302, #388 ) ) ;
#206 = UNCERTAINTY_MEASURE_WITH_UNIT (LENGTH_MEASURE( 1.000000000000000082E-05 ), #55, 'distance_accuracy_value', 'NONE');
#207 = EDGE_LOOP ( 'NONE', ( #399, #397, #378, #247, #442, #401, #427, #522 ) ) ;
#208 = CARTESIAN_POINT ( 'NONE',  ( -15.00000000000000355, 15.00000000000000178, 1.000000000000000000 ) ) ;
#209 = EDGE_LOOP ( 'NONE', ( #174, #164, #82, #113 ) ) ;
#210 = ADVANCED_FACE ( 'NONE', ( #64 ), #24, .F. ) ;
#211 = ORIENTED_EDGE ( 'NONE', *, *, #222, .T. ) ;
#212 =( NAMED_UNIT ( * ) SI_UNIT ( $, .STERADIAN. ) SOLID_ANGLE_UNIT ( ) );
#213 = EDGE_LOOP ( 'NONE', ( #259, #547, #305, #477 ) ) ;
#214 = ORIENTED_EDGE ( 'NONE', *, *, #146, .F. ) ;
#215 = ORIENTED_EDGE ( 'NONE', *, *, #411, .T. ) ;
#216 = PRODUCT_DEFINITION_FORMATION_WITH_SPECIFIED_SOURCE ( 'ANY', '', #185, .NOT_KNOWN. ) ;
#217 = DIRECTION ( 'NONE',  ( 1.000000000000000000, 0.000000000000000000, 0.000000000000000000 ) ) ;
#218 = ORIENTED_EDGE ( 'NONE', *, *, #350, .F. ) ;
#219 = DIRECTION ( 'NONE',  ( 0.000000000000000000, 0.000000000000000000, 1.000000000000000000 ) ) ;
#220 = VECTOR ( 'NONE', #357, 1000.000000000000000 ) ;
#221 = LINE ( 'NONE', #486, #556 ) ;
#222 = EDGE_CURVE ( 'NONE', #478, #223, #282, .T. ) ;
#223 = VERTEX_POINT ( 'NONE', #503 ) ;
#224 = DIRECTION ( 'NONE',  ( 0.000000000000000000, 0.000000000000000000, 1.000000000000000000 ) ) ;
#225 = DIRECTION ( 'NONE',  ( -1.000000000000000000, 0.000000000000000000, 0.000000000000000000 ) ) ;
#226 = DIRECTION ( 'NONE',  ( 0.000000000000000000, 0.000000000000000000, 1.000000000000000000 ) ) ;
#227 = LINE ( 'NONE', #130, #3 ) ;
#228 = DIRECTION ( 'NONE',  ( 1.000000000000000000, 0.000000000000000000, 0.000000000000000000 ) ) ;
#229 = FACE_BOUND ( 'NONE', #46, .T. ) ;
#230 = CARTESIAN_POINT ( 'NONE',  ( -15.00000000000000355, 15.00000000000000178, -1.000000000000000000 ) ) ;
#231 = AXIS2_PLACEMENT_3D ( 'NONE', #260, #94, #228 ) ;
#232 = EDGE_CURVE ( 'NONE', #394, #237, #419, .T. ) ;
#233 = CARTESIAN_POINT ( 'NONE',  ( 7.499999999999999112, -24.50000000000000000, -1.000000000000000000 ) ) ;
#234 = LINE ( 'NONE', #504, #261 ) ;
#235 = CARTESIAN_POINT ( 'NONE',  ( -15.00000000000000355, 15.00000000000000178, 1.000000000000000000 ) ) ;
#236 = AXIS2_PLACEMENT_3D ( 'NONE', #539, #140, #133 ) ;
#237 = VERTEX_POINT ( 'NONE', #540 ) ;
#238 = DIRECTION ( 'NONE',  ( 1.000000000000000000, 0.000000000000000000, 0.000000000000000000 ) ) ;
#239 = CARTESIAN_POINT ( 'NONE',  ( -15.00000000000000355, 10.00000000000000178, 1.000000000000000000 ) ) ;
#240 = DIRECTION ( 'NONE',  ( -0.000000000000000000, -0.000000000000000000, 1.000000000000000000 ) ) ;
#241 = COLOUR_RGB ( '',0.7921568627450980005, 0.8196078431372548767, 0.9333333333333333481 ) ;
#242 = ADVANCED_FACE ( 'NONE', ( #454 ), #190, .T. ) ;
#243 = AXIS2_PLACEMENT_3D ( 'NONE', #511, #161, #124 ) ;
#244 = CARTESIAN_POINT ( 'NONE',  ( 14.99999999999999645, 15.00000000000000178, 1.000000000000000000 ) ) ;
#245 = DIRECTION ( 'NONE',  ( 0.000000000000000000, 0.000000000000000000, -1.000000000000000000 ) ) ;
#246 = DIRECTION ( 'NONE',  ( 1.156482317317871725E-16, -1.000000000000000000, 0.000000000000000000 ) ) ;
#247 = ORIENTED_EDGE ( 'NONE', *, *, #93, .T. ) ;
#248 = ORIENTED_EDGE ( 'NONE', *, *, #441, .F. ) ;
#249 = DIRECTION ( 'NONE',  ( 1.000000000000000000, 0.000000000000000000, 0.000000000000000000 ) ) ;
#250 = ADVANCED_FACE ( 'NONE', ( #543, #192, #31, #27 ), #413, .F. ) ;
#251 = ORIENTED_EDGE ( 'NONE', *, *, #200, .F. ) ;
#252 = ORIENTED_EDGE ( 'NONE', *, *, #4, .T. ) ;
#253 = DIRECTION ( 'NONE',  ( 1.000000000000000000, 0.000000000000000000, 0.000000000000000000 ) ) ;
#254 = EDGE_LOOP ( 'NONE', ( #561, #215, #351, #463 ) ) ;
#255 = VECTOR ( 'NONE', #434, 1000.000000000000000 ) ;
#256 = ORIENTED_EDGE ( 'NONE', *, *, #153, .F. ) ;
#257 = EDGE_LOOP ( 'NONE', ( #301, #39, #526, #295, #358, #355, #383, #502 ) ) ;
#258 = CARTESIAN_POINT ( 'NONE',  ( -10.00000000000000178, 15.00000000000000178, 1.000000000000000000 ) ) ;
#259 = ORIENTED_EDGE ( 'NONE', *, *, #49, .F. ) ;
#260 = CARTESIAN_POINT ( 'NONE',  ( -7.500000000000004441, -24.50000000000000355, -1.000000000000000000 ) ) ;
#261 = VECTOR ( 'NONE', #187, 1000.000000000000000 ) ;
#262 = EDGE_CURVE ( 'NONE', #387, #292, #34, .T. ) ;
#263 = CARTESIAN_POINT ( 'NONE',  ( 9.999999999999994671, 15.00000000000000178, 1.000000000000000000 ) ) ;
#264 = ORIENTED_EDGE ( 'NONE', *, *, #38, .F. ) ;
#265 = CARTESIAN_POINT ( 'NONE',  ( 9.499999999999998224, 1.163414459189985485E-15, 1.000000000000000000 ) ) ;
#266 = AXIS2_PLACEMENT_3D ( 'NONE', #457, #414, #374 ) ;
#267 = DIRECTION ( 'NONE',  ( 1.000000000000000000, 0.000000000000000000, 0.000000000000000000 ) ) ;
#268 = CARTESIAN_POINT ( 'NONE',  ( 14.99999999999999645, 10.00000000000000178, 1.000000000000000000 ) ) ;
#269 = CARTESIAN_POINT ( 'NONE',  ( -15.00000000000000355, 10.00000000000000178, 1.000000000000000000 ) ) ;
#270 = FILL_AREA_STYLE_COLOUR ( '', #241 ) ;
#271 = EDGE_CURVE ( 'NONE', #524, #467, #66, .T. ) ;
#272 = PRESENTATION_LAYER_ASSIGNMENT (  '', '', ( #122 ) ) ;
#273 = DIRECTION ( 'NONE',  ( 1.000000000000000000, 0.000000000000000000, 0.000000000000000000 ) ) ;
#274 =( NAMED_UNIT ( * ) SI_UNIT ( $, .STERADIAN. ) SOLID_ANGLE_UNIT ( ) );
#275 = LINE ( 'NONE', #448, #341 ) ;
#276 = AXIS2_PLACEMENT_3D ( 'NONE', #361, #447, #225 ) ;
#277 = LINE ( 'NONE', #235, #40 ) ;
#278 = CARTESIAN_POINT ( 'NONE',  ( 7.499999999999999112, -24.50000000000000000, 1.000000000000000000 ) ) ;
#279 = DIRECTION ( 'NONE',  ( -1.000000000000000000, -0.000000000000000000, -0.000000000000000000 ) ) ;
#280 = CARTESIAN_POINT ( 'NONE',  ( 5.500000000000001776, -24.50000000000000000, -1.000000000000000000 ) ) ;
#281 = CIRCLE ( 'NONE', #481, 1.999999999999997335 ) ;
#282 = LINE ( 'NONE', #230, #391 ) ;
#283 = CARTESIAN_POINT ( 'NONE',  ( 15.00000000000000178, -32.00000000000000000, -1.000000000000000000 ) ) ;
#284 = VERTEX_POINT ( 'NONE', #20 ) ;
#285 = CARTESIAN_POINT ( 'NONE',  ( -7.500000000000004441, -24.50000000000000355, 1.000000000000000000 ) ) ;
#286 = DIRECTION ( 'NONE',  ( 0.000000000000000000, -0.000000000000000000, -1.000000000000000000 ) ) ;
#287 = ORIENTED_EDGE ( 'NONE', *, *, #271, .T. ) ;
#288 = CARTESIAN_POINT ( 'NONE',  ( -1.734723475976807094E-15, 0.000000000000000000, 1.000000000000000000 ) ) ;
#289 = EDGE_LOOP ( 'NONE', ( #435, #469, #417, #87 ) ) ;
#290 = VERTEX_POINT ( 'NONE', #381 ) ;
#291 = CARTESIAN_POINT ( 'NONE',  ( -5.500000000000003553, -24.50000000000000355, -1.000000000000000000 ) ) ;
#292 = VERTEX_POINT ( 'NONE', #379 ) ;
#293 = AXIS2_PLACEMENT_3D ( 'NONE', #458, #334, #148 ) ;
#294 = EDGE_CURVE ( 'NONE', #342, #54, #554, .T. ) ;
#295 = ORIENTED_EDGE ( 'NONE', *, *, #513, .T. ) ;
#296 = FILL_AREA_STYLE_COLOUR ( '', #189 ) ;
#297 = ORIENTED_EDGE ( 'NONE', *, *, #191, .F. ) ;
#298 = PRODUCT_DEFINITION_SHAPE ( 'NONE', 'NONE',  #472 ) ;
#299 = ORIENTED_EDGE ( 'NONE', *, *, #93, .F. ) ;
#300 = CARTESIAN_POINT ( 'NONE',  ( -12.99999999999999822, -34.00000000000000000, -1.000000000000000000 ) ) ;
#301 = ORIENTED_EDGE ( 'NONE', *, *, #433, .F. ) ;
#302 = ORIENTED_EDGE ( 'NONE', *, *, #65, .F. ) ;
#303 = VERTEX_POINT ( 'NONE', #453 ) ;
#304 = CLOSED_SHELL ( 'NONE', ( #58, #528, #141, #316, #250, #484, #506, #489, #102, #541, #418, #210, #184, #242, #21, #359 ) ) ;
#305 = ORIENTED_EDGE ( 'NONE', *, *, #68, .T. ) ;
#306 = ORIENTED_EDGE ( 'NONE', *, *, #232, .F. ) ;
#307 = EDGE_CURVE ( 'NONE', #292, #461, #234, .T. ) ;
#308 = CARTESIAN_POINT ( 'NONE',  ( 14.99999999999999645, 15.00000000000000178, -1.000000000000000000 ) ) ;
#309 = EDGE_LOOP ( 'NONE', ( #51, #550 ) ) ;
#310 = DIRECTION ( 'NONE',  ( -0.000000000000000000, -0.000000000000000000, 1.000000000000000000 ) ) ;
#311 = VECTOR ( 'NONE', #492, 1000.000000000000000 ) ;
#312 = FACE_OUTER_BOUND ( 'NONE', #344, .T. ) ;
#313 =( NAMED_UNIT ( * ) SI_UNIT ( $, .STERADIAN. ) SOLID_ANGLE_UNIT ( ) );
#314 = CIRCLE ( 'NONE', #293, 2.000000000000000000 ) ;
#315 = DIRECTION ( 'NONE',  ( -1.156482317317871478E-16, 1.000000000000000000, -0.000000000000000000 ) ) ;
#316 = ADVANCED_FACE ( 'NONE', ( #496, #110, #63, #229 ), #410, .T. ) ;
#317 = SHAPE_DEFINITION_REPRESENTATION ( #298, #72 ) ;
#318 = SURFACE_SIDE_STYLE ('',( #172 ) ) ;
#319 = DIRECTION ( 'NONE',  ( 1.000000000000000000, 0.000000000000000000, 0.000000000000000000 ) ) ;
#320 = DIRECTION ( 'NONE',  ( -0.000000000000000000, -0.000000000000000000, 1.000000000000000000 ) ) ;
#321 = AXIS2_PLACEMENT_3D ( 'NONE', #288, #475, #249 ) ;
#322 = DIRECTION ( 'NONE',  ( -1.000000000000000000, 0.000000000000000000, 0.000000000000000000 ) ) ;
#323 = CIRCLE ( 'NONE', #444, 9.500000000000000000 ) ;
#324 = EDGE_CURVE ( 'NONE', #237, #167, #112, .T. ) ;
#325 = DIRECTION ( 'NONE',  ( 0.000000000000000000, 0.000000000000000000, 1.000000000000000000 ) ) ;
#326 = VERTEX_POINT ( 'NONE', #280 ) ;
#327 = DIRECTION ( 'NONE',  ( -0.000000000000000000, 0.000000000000000000, 1.000000000000000000 ) ) ;
#328 = AXIS2_PLACEMENT_3D ( 'NONE', #278, #325, #104 ) ;
#329 = LINE ( 'NONE', #145, #549 ) ;
#330 = DIRECTION ( 'NONE',  ( -1.000000000000000000, -0.000000000000000000, -0.000000000000000000 ) ) ;
#331 = VECTOR ( 'NONE', #199, 1000.000000000000000 ) ;
#332 = AXIS2_PLACEMENT_3D ( 'NONE', #144, #327, #109 ) ;
#333 = EDGE_CURVE ( 'NONE', #119, #520, #67, .T. ) ;
#334 = DIRECTION ( 'NONE',  ( 0.000000000000000000, -0.000000000000000000, -1.000000000000000000 ) ) ;
#335 = ORIENTED_EDGE ( 'NONE', *, *, #294, .F. ) ;
#336 = SURFACE_STYLE_USAGE ( .BOTH. , #152 ) ;
#337 = EDGE_LOOP ( 'NONE', ( #251, #482, #559, #512 ) ) ;
#338 = EDGE_CURVE ( 'NONE', #465, #284, #500, .T. ) ;
#339 = CARTESIAN_POINT ( 'NONE',  ( -5.500000000000003553, -24.50000000000000355, 1.000000000000000000 ) ) ;
#340 = VERTEX_POINT ( 'NONE', #179 ) ;
#341 = VECTOR ( 'NONE', #92, 1000.000000000000000 ) ;
#342 = VERTEX_POINT ( 'NONE', #538 ) ;
#343 = FACE_OUTER_BOUND ( 'NONE', #209, .T. ) ;
#344 = EDGE_LOOP ( 'NONE', ( #162, #160, #91, #77 ) ) ;
#345 = DIRECTION ( 'NONE',  ( -1.000000000000000000, 0.000000000000000000, 0.000000000000000000 ) ) ;
#346 = CARTESIAN_POINT ( 'NONE',  ( 13.00000000000000178, -34.00000000000000000, 1.000000000000000000 ) ) ;
#347 = EDGE_LOOP ( 'NONE', ( #498, #432, #390, #121 ) ) ;
#348 = VECTOR ( 'NONE', #157, 1000.000000000000000 ) ;
#349 = LINE ( 'NONE', #258, #331 ) ;
#350 = EDGE_CURVE ( 'NONE', #48, #126, #29, .T. ) ;
#351 = ORIENTED_EDGE ( 'NONE', *, *, #232, .T. ) ;
#352 = CIRCLE ( 'NONE', #100, 2.000000000000000888 ) ;
#353 = VECTOR ( 'NONE', #455, 1000.000000000000000 ) ;
#354 = DIRECTION ( 'NONE',  ( -0.000000000000000000, -0.000000000000000000, 1.000000000000000000 ) ) ;
#355 = ORIENTED_EDGE ( 'NONE', *, *, #294, .T. ) ;
#356 = PRESENTATION_STYLE_ASSIGNMENT (( #96 ) ) ;
#357 = DIRECTION ( 'NONE',  ( -0.000000000000000000, -0.000000000000000000, 1.000000000000000000 ) ) ;
#358 = ORIENTED_EDGE ( 'NONE', *, *, #462, .T. ) ;
#359 = ADVANCED_FACE ( 'NONE', ( #134 ), #450, .T. ) ;
#360 = MANIFOLD_SOLID_BREP ( 'Fillet2', #304 ) ;
#361 = CARTESIAN_POINT ( 'NONE',  ( 9.999999999999994671, 10.00000000000000178, 1.000000000000000000 ) ) ;
#362 =( LENGTH_UNIT ( ) NAMED_UNIT ( * ) SI_UNIT ( .MILLI., .METRE. ) );
#363 = CIRCLE ( 'NONE', #156, 9.500000000000000000 ) ;
#364 =( NAMED_UNIT ( * ) PLANE_ANGLE_UNIT ( ) SI_UNIT ( $, .RADIAN. ) );
#365 = VECTOR ( 'NONE', #315, 1000.000000000000000 ) ;
#366 = CARTESIAN_POINT ( 'NONE',  ( -15.00000000000000355, 15.00000000000000178, 1.000000000000000000 ) ) ;
#367 = DIRECTION ( 'NONE',  ( 1.000000000000000000, 0.000000000000000000, 0.000000000000000000 ) ) ;
#368 = DIRECTION ( 'NONE',  ( -0.000000000000000000, -0.000000000000000000, -1.000000000000000000 ) ) ;
#369 = LINE ( 'NONE', #239, #311 ) ;
#370 = DIRECTION ( 'NONE',  ( 0.000000000000000000, 0.000000000000000000, 1.000000000000000000 ) ) ;
#371 = PRESENTATION_LAYER_ASSIGNMENT (  '', '', ( #439 ) ) ;
#372 = EDGE_CURVE ( 'NONE', #168, #126, #479, .T. ) ;
#373 = CIRCLE ( 'NONE', #243, 5.000000000000000888 ) ;
#374 = DIRECTION ( 'NONE',  ( -1.000000000000000000, 0.000000000000000000, 0.000000000000000000 ) ) ;
#375 = AXIS2_PLACEMENT_3D ( 'NONE', #10, #491, #61 ) ;
#376 = DIRECTION ( 'NONE',  ( -0.000000000000000000, 0.000000000000000000, 1.000000000000000000 ) ) ;
#377 = CARTESIAN_POINT ( 'NONE',  ( 13.00000000000000178, -34.00000000000000000, -1.000000000000000000 ) ) ;
#378 = ORIENTED_EDGE ( 'NONE', *, *, #271, .F. ) ;
#379 = CARTESIAN_POINT ( 'NONE',  ( 15.00000000000000178, -32.00000000000000000, 1.000000000000000000 ) ) ;
#380 = PLANE ( 'NONE',  #196 ) ;
#381 = CARTESIAN_POINT ( 'NONE',  ( 9.499999999999998224, 1.163414459189985485E-15, -1.000000000000000000 ) ) ;
#382 = AXIS2_PLACEMENT_3D ( 'NONE', #47, #245, #345 ) ;
#383 = ORIENTED_EDGE ( 'NONE', *, *, #125, .T. ) ;
#384 = SURFACE_STYLE_FILL_AREA ( #36 ) ;
#385 = DIRECTION ( 'NONE',  ( 0.000000000000000000, -0.000000000000000000, -1.000000000000000000 ) ) ;
#386 = CARTESIAN_POINT ( 'NONE',  ( -9.500000000000001776, 0.000000000000000000, -1.000000000000000000 ) ) ;
#387 = VERTEX_POINT ( 'NONE', #402 ) ;
#388 = ORIENTED_EDGE ( 'NONE', *, *, #403, .F. ) ;
#389 = DIRECTION ( 'NONE',  ( 1.000000000000000000, 1.156482317317871725E-16, -0.000000000000000000 ) ) ;
#390 = ORIENTED_EDGE ( 'NONE', *, *, #107, .T. ) ;
#391 = VECTOR ( 'NONE', #330, 1000.000000000000000 ) ;
#392 = CYLINDRICAL_SURFACE ( 'NONE', #382, 2.000000000000000000 ) ;
#393 = DIRECTION ( 'NONE',  ( -1.000000000000000000, -1.156482317317871725E-16, 0.000000000000000000 ) ) ;
#394 = VERTEX_POINT ( 'NONE', #483 ) ;
#395 = PRODUCT_RELATED_PRODUCT_CATEGORY ( 'part', '', ( #185 ) ) ;
#396 = EDGE_LOOP ( 'NONE', ( #248, #558 ) ) ;
#397 = ORIENTED_EDGE ( 'NONE', *, *, #200, .T. ) ;
#398 = CARTESIAN_POINT ( 'NONE',  ( -9.500000000000005329, -24.50000000000000355, 1.000000000000000000 ) ) ;
#399 = ORIENTED_EDGE ( 'NONE', *, *, #68, .F. ) ;
#400 = CARTESIAN_POINT ( 'NONE',  ( 7.499999999999999112, -24.50000000000000000, 1.000000000000000000 ) ) ;
#401 = ORIENTED_EDGE ( 'NONE', *, *, #38, .T. ) ;
#402 = CARTESIAN_POINT ( 'NONE',  ( 13.00000000000000178, -34.00000000000000000, 1.000000000000000000 ) ) ;
#403 = EDGE_CURVE ( 'NONE', #168, #531, #195, .T. ) ;
#404 = PRODUCT_DEFINITION_CONTEXT ( 'detailed design', #1, 'design' ) ;
#405 = DIRECTION ( 'NONE',  ( -1.156482317317871478E-16, 1.000000000000000000, -0.000000000000000000 ) ) ;
#406 = CARTESIAN_POINT ( 'NONE',  ( -7.500000000000004441, -24.50000000000000355, -1.000000000000000000 ) ) ;
#407 = CARTESIAN_POINT ( 'NONE',  ( 0.000000000000000000, 0.000000000000000000, 0.000000000000000000 ) ) ;
#408 = CARTESIAN_POINT ( 'NONE',  ( -1.734723475976807094E-15, 0.000000000000000000, -1.000000000000000000 ) ) ;
#409 = FACE_OUTER_BOUND ( 'NONE', #347, .T. ) ;
#410 = PLANE ( 'NONE',  #499 ) ;
#411 = EDGE_CURVE ( 'NONE', #326, #394, #89, .T. ) ;
#412 = AXIS2_PLACEMENT_3D ( 'NONE', #438, #62, #137 ) ;
#413 = PLANE ( 'NONE',  #332 ) ;
#414 = DIRECTION ( 'NONE',  ( 0.000000000000000000, 0.000000000000000000, -1.000000000000000000 ) ) ;
#415 = AXIS2_PLACEMENT_3D ( 'NONE', #400, #173, #267 ) ;
#416 = DIRECTION ( 'NONE',  ( -1.000000000000000000, -0.000000000000000000, -0.000000000000000000 ) ) ;
#417 = ORIENTED_EDGE ( 'NONE', *, *, #333, .T. ) ;
#418 = ADVANCED_FACE ( 'NONE', ( #409 ), #52, .F. ) ;
#419 = LINE ( 'NONE', #420, #353 ) ;
#420 = CARTESIAN_POINT ( 'NONE',  ( 9.499999999999996447, -24.50000000000000000, -6.656854249492384135 ) ) ;
#421 = AXIS2_PLACEMENT_3D ( 'NONE', #471, #519, #81 ) ;
#422 = ORIENTED_EDGE ( 'NONE', *, *, #433, .T. ) ;
#423 = LINE ( 'NONE', #562, #127 ) ;
#424 = EDGE_CURVE ( 'NONE', #478, #465, #154, .T. ) ;
#425 = FACE_OUTER_BOUND ( 'NONE', #128, .T. ) ;
#426 = EDGE_LOOP ( 'NONE', ( #118, #202, #211, #252 ) ) ;
#427 = ORIENTED_EDGE ( 'NONE', *, *, #222, .F. ) ;
#428 =( LENGTH_UNIT ( ) NAMED_UNIT ( * ) SI_UNIT ( .MILLI., .METRE. ) );
#429 = VERTEX_POINT ( 'NONE', #265 ) ;
#430 = LINE ( 'NONE', #75, #255 ) ;
#431 = LINE ( 'NONE', #346, #348 ) ;
#432 = ORIENTED_EDGE ( 'NONE', *, *, #403, .T. ) ;
#433 = EDGE_CURVE ( 'NONE', #387, #517, #9, .T. ) ;
#434 = DIRECTION ( 'NONE',  ( 1.156482317317871478E-16, -1.000000000000000000, 0.000000000000000000 ) ) ;
#435 = ORIENTED_EDGE ( 'NONE', *, *, #85, .F. ) ;
#436 = ORIENTED_EDGE ( 'NONE', *, *, #85, .T. ) ;
#437 = ORIENTED_EDGE ( 'NONE', *, *, #324, .F. ) ;
#438 = CARTESIAN_POINT ( 'NONE',  ( 7.499999999999999112, -24.50000000000000000, -1.000000000000000000 ) ) ;
#439 = STYLED_ITEM ( 'NONE', ( #509 ), #72 ) ;
#440 = CARTESIAN_POINT ( 'NONE',  ( -12.99999999999999822, -32.00000000000000000, -1.000000000000000000 ) ) ;
#441 = EDGE_CURVE ( 'NONE', #394, #326, #281, .T. ) ;
#442 = ORIENTED_EDGE ( 'NONE', *, *, #11, .F. ) ;
#443 = CARTESIAN_POINT ( 'NONE',  ( -12.99999999999999822, -32.00000000000000000, 0.000000000000000000 ) ) ;
#444 = AXIS2_PLACEMENT_3D ( 'NONE', #408, #224, #217 ) ;
#445 = CARTESIAN_POINT ( 'NONE',  ( 5.500000000000001776, -24.50000000000000000, 1.000000000000000000 ) ) ;
#446 = DIRECTION ( 'NONE',  ( -1.000000000000000000, 0.000000000000000000, 0.000000000000000000 ) ) ;
#447 = DIRECTION ( 'NONE',  ( 0.000000000000000000, 0.000000000000000000, -1.000000000000000000 ) ) ;
#448 = CARTESIAN_POINT ( 'NONE',  ( 9.499999999999998224, 1.163414459189985485E-15, 1.000000000000000000 ) ) ;
#449 = AXIS2_PLACEMENT_3D ( 'NONE', #466, #560, #45 ) ;
#450 = CYLINDRICAL_SURFACE ( 'NONE', #470, 2.000000000000000000 ) ;
#451 = CIRCLE ( 'NONE', #198, 5.000000000000000000 ) ;
#452 = EDGE_CURVE ( 'NONE', #517, #524, #329, .T. ) ;
#453 = CARTESIAN_POINT ( 'NONE',  ( -14.99999999999999822, -32.00000000000000000, -1.000000000000000000 ) ) ;
#454 = FACE_OUTER_BOUND ( 'NONE', #473, .T. ) ;
#455 = DIRECTION ( 'NONE',  ( -0.000000000000000000, -0.000000000000000000, 1.000000000000000000 ) ) ;
#456 = EDGE_CURVE ( 'NONE', #54, #84, #369, .T. ) ;
#457 = CARTESIAN_POINT ( 'NONE',  ( -10.00000000000000178, 10.00000000000000178, 1.000000000000000000 ) ) ;
#458 = CARTESIAN_POINT ( 'NONE',  ( 13.00000000000000178, -32.00000000000000000, -1.000000000000000000 ) ) ;
#459 =( GEOMETRIC_REPRESENTATION_CONTEXT ( 3 ) GLOBAL_UNCERTAINTY_ASSIGNED_CONTEXT ( ( #533 ) ) GLOBAL_UNIT_ASSIGNED_CONTEXT ( ( #362, #57, #313 ) ) REPRESENTATION_CONTEXT ( 'NONE', 'WORKASPACE' ) );
#460 = DIRECTION ( 'NONE',  ( 1.000000000000000000, 0.000000000000000000, 0.000000000000000000 ) ) ;
#461 = VERTEX_POINT ( 'NONE', #283 ) ;
#462 = EDGE_CURVE ( 'NONE', #79, #342, #277, .T. ) ;
#463 = ORIENTED_EDGE ( 'NONE', *, *, #324, .T. ) ;
#464 = AXIS2_PLACEMENT_3D ( 'NONE', #440, #12, #15 ) ;
#465 = VERTEX_POINT ( 'NONE', #25 ) ;
#466 = CARTESIAN_POINT ( 'NONE',  ( -15.00000000000000355, 15.00000000000000178, 1.000000000000000000 ) ) ;
#467 = VERTEX_POINT ( 'NONE', #377 ) ;
#468 = UNCERTAINTY_MEASURE_WITH_UNIT (LENGTH_MEASURE( 1.000000000000000082E-05 ), #428, 'distance_accuracy_value', 'NONE');
#469 = ORIENTED_EDGE ( 'NONE', *, *, #553, .T. ) ;
#470 = AXIS2_PLACEMENT_3D ( 'NONE', #443, #219, #182 ) ;
#471 = CARTESIAN_POINT ( 'NONE',  ( 0.000000000000000000, -34.00000000000000000, 0.000000000000000000 ) ) ;
#472 = PRODUCT_DEFINITION ( 'UNKNOWN', '', #216, #404 ) ;
#473 = EDGE_LOOP ( 'NONE', ( #335, #80, #264, #514 ) ) ;
#474 = EDGE_LOOP ( 'NONE', ( #476, #41, #131, #306 ) ) ;
#475 = DIRECTION ( 'NONE',  ( 0.000000000000000000, 0.000000000000000000, 1.000000000000000000 ) ) ;
#476 = ORIENTED_EDGE ( 'NONE', *, *, #441, .T. ) ;
#477 = ORIENTED_EDGE ( 'NONE', *, *, #338, .T. ) ;
#478 = VERTEX_POINT ( 'NONE', #28 ) ;
#479 = LINE ( 'NONE', #88, #18 ) ;
#480 = CARTESIAN_POINT ( 'NONE',  ( -12.99999999999999822, -32.00000000000000000, 1.000000000000000000 ) ) ;
#481 = AXIS2_PLACEMENT_3D ( 'NONE', #233, #286, #32 ) ;
#482 = ORIENTED_EDGE ( 'NONE', *, *, #307, .F. ) ;
#483 = CARTESIAN_POINT ( 'NONE',  ( 9.499999999999996447, -24.50000000000000000, -1.000000000000000000 ) ) ;
#484 = ADVANCED_FACE ( 'NONE', ( #194 ), #380, .F. ) ;
#485 = DIRECTION ( 'NONE',  ( 1.156482317317871478E-16, -1.000000000000000000, 0.000000000000000000 ) ) ;
#486 = CARTESIAN_POINT ( 'NONE',  ( -14.99999999999999822, -32.00000000000000000, 1.000000000000000000 ) ) ;
#487 = CARTESIAN_POINT ( 'NONE',  ( -7.500000000000004441, -24.50000000000000355, 1.000000000000000000 ) ) ;
#488 = LINE ( 'NONE', #308, #365 ) ;
#489 = ADVANCED_FACE ( 'NONE', ( #515 ), #548, .F. ) ;
#490 = MECHANICAL_DESIGN_GEOMETRIC_PRESENTATION_REPRESENTATION (  '', ( #122 ), #507 ) ;
#491 = DIRECTION ( 'NONE',  ( -0.000000000000000000, -0.000000000000000000, -1.000000000000000000 ) ) ;
#492 = DIRECTION ( 'NONE',  ( 0.000000000000000000, 0.000000000000000000, -1.000000000000000000 ) ) ;
#493 = CIRCLE ( 'NONE', #236, 9.500000000000000000 ) ;
#494 = DIRECTION ( 'NONE',  ( 1.000000000000000000, 0.000000000000000000, 0.000000000000000000 ) ) ;
#495 = EDGE_CURVE ( 'NONE', #290, #520, #363, .T. ) ;
#496 = FACE_BOUND ( 'NONE', #8, .T. ) ;
#497 = DIRECTION ( 'NONE',  ( 0.000000000000000000, 0.000000000000000000, -1.000000000000000000 ) ) ;
#498 = ORIENTED_EDGE ( 'NONE', *, *, #372, .F. ) ;
#499 = AXIS2_PLACEMENT_3D ( 'NONE', #17, #376, #103 ) ;
#500 = LINE ( 'NONE', #268, #530 ) ;
#501 = CIRCLE ( 'NONE', #321, 9.500000000000000000 ) ;
#502 = ORIENTED_EDGE ( 'NONE', *, *, #74, .T. ) ;
#503 = CARTESIAN_POINT ( 'NONE',  ( -10.00000000000000178, 15.00000000000000178, -1.000000000000000000 ) ) ;
#504 = CARTESIAN_POINT ( 'NONE',  ( 15.00000000000000178, -32.00000000000000000, -1.000000000000000000 ) ) ;
#505 = PLANE ( 'NONE',  #421 ) ;
#506 = ADVANCED_FACE ( 'NONE', ( #557 ), #204, .F. ) ;
#507 =( GEOMETRIC_REPRESENTATION_CONTEXT ( 3 ) GLOBAL_UNCERTAINTY_ASSIGNED_CONTEXT ( ( #206 ) ) GLOBAL_UNIT_ASSIGNED_CONTEXT ( ( #55, #364, #274 ) ) REPRESENTATION_CONTEXT ( 'NONE', 'WORKASPACE' ) );
#508 = ORIENTED_EDGE ( 'NONE', *, *, #153, .T. ) ;
#509 = PRESENTATION_STYLE_ASSIGNMENT (( #336 ) ) ;
#510 = LINE ( 'NONE', #116, #523 ) ;
#511 = CARTESIAN_POINT ( 'NONE',  ( 9.999999999999994671, 10.00000000000000178, 1.000000000000000000 ) ) ;
#512 = ORIENTED_EDGE ( 'NONE', *, *, #537, .F. ) ;
#513 = EDGE_CURVE ( 'NONE', #284, #79, #373, .T. ) ;
#514 = ORIENTED_EDGE ( 'NONE', *, *, #456, .F. ) ;
#515 = FACE_OUTER_BOUND ( 'NONE', #5, .T. ) ;
#516 = ORIENTED_EDGE ( 'NONE', *, *, #11, .T. ) ;
#517 = VERTEX_POINT ( 'NONE', #78 ) ;
#518 = AXIS2_PLACEMENT_3D ( 'NONE', #16, #60, #14 ) ;
#519 = DIRECTION ( 'NONE',  ( 0.000000000000000000, -1.000000000000000000, 0.000000000000000000 ) ) ;
#520 = VERTEX_POINT ( 'NONE', #386 ) ;
#521 = AXIS2_PLACEMENT_3D ( 'NONE', #201, #76, #253 ) ;
#522 = ORIENTED_EDGE ( 'NONE', *, *, #424, .T. ) ;
#523 = VECTOR ( 'NONE', #405, 1000.000000000000000 ) ;
#524 = VERTEX_POINT ( 'NONE', #300 ) ;
#525 = CARTESIAN_POINT ( 'NONE',  ( 7.499999999999999112, -24.50000000000000000, -6.656854249492384135 ) ) ;
#526 = ORIENTED_EDGE ( 'NONE', *, *, #49, .T. ) ;
#527 = DIRECTION ( 'NONE',  ( 1.000000000000000000, 0.000000000000000000, 0.000000000000000000 ) ) ;
#528 = ADVANCED_FACE ( 'NONE', ( #343 ), #111, .F. ) ;
#529 = CARTESIAN_POINT ( 'NONE',  ( -9.500000000000005329, -24.50000000000000355, -1.000000000000000000 ) ) ;
#530 = VECTOR ( 'NONE', #532, 1000.000000000000000 ) ;
#531 = VERTEX_POINT ( 'NONE', #291 ) ;
#532 = DIRECTION ( 'NONE',  ( -0.000000000000000000, -0.000000000000000000, 1.000000000000000000 ) ) ;
#533 = UNCERTAINTY_MEASURE_WITH_UNIT (LENGTH_MEASURE( 1.000000000000000082E-05 ), #362, 'distance_accuracy_value', 'NONE');
#534 = AXIS2_PLACEMENT_3D ( 'NONE', #208, #389, #551 ) ;
#535 = DIRECTION ( 'NONE',  ( -1.000000000000000000, 0.000000000000000000, 0.000000000000000000 ) ) ;
#536 = DIRECTION ( 'NONE',  ( 0.000000000000000000, -0.000000000000000000, -1.000000000000000000 ) ) ;
#537 = EDGE_CURVE ( 'NONE', #467, #387, #431, .T. ) ;
#538 = CARTESIAN_POINT ( 'NONE',  ( -10.00000000000000178, 15.00000000000000178, 1.000000000000000000 ) ) ;
#539 = CARTESIAN_POINT ( 'NONE',  ( -1.734723475976807094E-15, 0.000000000000000000, 1.000000000000000000 ) ) ;
#540 = CARTESIAN_POINT ( 'NONE',  ( 9.499999999999996447, -24.50000000000000000, 1.000000000000000000 ) ) ;
#541 = ADVANCED_FACE ( 'NONE', ( #425 ), #505, .T. ) ;
#542 = CIRCLE ( 'NONE', #23, 2.000000000000000888 ) ;
#543 = FACE_BOUND ( 'NONE', #396, .T. ) ;
#544 = CARTESIAN_POINT ( 'NONE',  ( -9.500000000000001776, 0.000000000000000000, 1.000000000000000000 ) ) ;
#545 = CARTESIAN_POINT ( 'NONE',  ( -10.00000000000000178, 10.00000000000000178, 1.000000000000000000 ) ) ;
#546 = DIRECTION ( 'NONE',  ( -0.000000000000000000, 0.000000000000000000, 1.000000000000000000 ) ) ;
#547 = ORIENTED_EDGE ( 'NONE', *, *, #307, .T. ) ;
#548 = PLANE ( 'NONE',  #534 ) ;
#549 = VECTOR ( 'NONE', #497, 1000.000000000000000 ) ;
#550 = ORIENTED_EDGE ( 'NONE', *, *, #495, .T. ) ;
#551 = DIRECTION ( 'NONE',  ( -1.156482317317871725E-16, 1.000000000000000000, 0.000000000000000000 ) ) ;
#552 = ORIENTED_EDGE ( 'NONE', *, *, #74, .F. ) ;
#553 = EDGE_CURVE ( 'NONE', #429, #119, #501, .T. ) ;
#554 = CIRCLE ( 'NONE', #176, 5.000000000000000000 ) ;
#555 = ORIENTED_EDGE ( 'NONE', *, *, #125, .F. ) ;
#556 = VECTOR ( 'NONE', #177, 1000.000000000000000 ) ;
#557 = FACE_OUTER_BOUND ( 'NONE', #426, .T. ) ;
#558 = ORIENTED_EDGE ( 'NONE', *, *, #411, .F. ) ;
#559 = ORIENTED_EDGE ( 'NONE', *, *, #262, .F. ) ;
#560 = DIRECTION ( 'NONE',  ( 0.000000000000000000, -1.000000000000000000, 0.000000000000000000 ) ) ;
#561 = ORIENTED_EDGE ( 'NONE', *, *, #132, .F. ) ;
#562 = CARTESIAN_POINT ( 'NONE',  ( 9.999999999999994671, 15.00000000000000178, 1.000000000000000000 ) ) ;
#563 = VECTOR ( 'NONE', #279, 1000.000000000000000 ) ;
#564 = ORIENTED_EDGE ( 'NONE', *, *, #115, .F. ) ;
ENDSEC;
END-ISO-10303-21;
