ISO-10303-21;
HEADER;
/* Generated by software containing ST-Developer
 * from STEP Tools, Inc. (www.steptools.com) 
 */
/* OPTION: using custom renumber hook */

FILE_DESCRIPTION(
/* description */ ('STEP AP242',
'CAx-IF Rec.Pracs.---Representation and Presentation of Product Manufa
cturing Information (PMI)---4.0---2014-10-13',
'CAx-IF Rec.Pracs.---3D Tessellated Geometry---0.4---2014-09-14','2;1'),

/* implementation_level */ '2;1');

FILE_NAME(
/* name */ '6901138409ead73a72ec76ed',
/* time_stamp */ '2025-10-28T19:03:33Z',
/* author */ (''),
/* organization */ (''),
/* preprocessor_version */ 'ST-DEVELOPER v20',
/* originating_system */ 'ONSHAPE BY PTC INC, 1.205',
/* authorisation */ '  ');

FILE_SCHEMA (('AP242_MANAGED_MODEL_BASED_3D_ENGINEERING_MIM_LF { 1 0 10303 442 1 1 4 }'));
ENDSEC;

DATA;
#10=SHAPE_REPRESENTATION_RELATIONSHIP('','',#176,#11);
#11=ADVANCED_BREP_SHAPE_REPRESENTATION('',(#174),#278);
#12=CIRCLE('',#184,0.05);
#13=CIRCLE('',#185,0.05);
#14=CYLINDRICAL_SURFACE('',#183,0.05);
#15=ORIENTED_EDGE('',*,*,#57,.T.);
#16=ORIENTED_EDGE('',*,*,#58,.F.);
#17=ORIENTED_EDGE('',*,*,#59,.F.);
#18=ORIENTED_EDGE('',*,*,#60,.T.);
#19=ORIENTED_EDGE('',*,*,#61,.T.);
#20=ORIENTED_EDGE('',*,*,#62,.F.);
#21=ORIENTED_EDGE('',*,*,#63,.F.);
#22=ORIENTED_EDGE('',*,*,#58,.T.);
#23=ORIENTED_EDGE('',*,*,#64,.T.);
#24=ORIENTED_EDGE('',*,*,#65,.F.);
#25=ORIENTED_EDGE('',*,*,#66,.F.);
#26=ORIENTED_EDGE('',*,*,#62,.T.);
#27=ORIENTED_EDGE('',*,*,#67,.T.);
#28=ORIENTED_EDGE('',*,*,#68,.F.);
#29=ORIENTED_EDGE('',*,*,#69,.F.);
#30=ORIENTED_EDGE('',*,*,#65,.T.);
#31=ORIENTED_EDGE('',*,*,#70,.T.);
#32=ORIENTED_EDGE('',*,*,#71,.F.);
#33=ORIENTED_EDGE('',*,*,#72,.F.);
#34=ORIENTED_EDGE('',*,*,#68,.T.);
#35=ORIENTED_EDGE('',*,*,#73,.F.);
#36=ORIENTED_EDGE('',*,*,#74,.F.);
#37=ORIENTED_EDGE('',*,*,#75,.T.);
#38=ORIENTED_EDGE('',*,*,#71,.T.);
#39=ORIENTED_EDGE('',*,*,#76,.T.);
#40=ORIENTED_EDGE('',*,*,#60,.F.);
#41=ORIENTED_EDGE('',*,*,#77,.F.);
#42=ORIENTED_EDGE('',*,*,#74,.T.);
#43=ORIENTED_EDGE('',*,*,#59,.T.);
#44=ORIENTED_EDGE('',*,*,#63,.T.);
#45=ORIENTED_EDGE('',*,*,#66,.T.);
#46=ORIENTED_EDGE('',*,*,#69,.T.);
#47=ORIENTED_EDGE('',*,*,#72,.T.);
#48=ORIENTED_EDGE('',*,*,#75,.F.);
#49=ORIENTED_EDGE('',*,*,#77,.T.);
#50=ORIENTED_EDGE('',*,*,#57,.F.);
#51=ORIENTED_EDGE('',*,*,#76,.F.);
#52=ORIENTED_EDGE('',*,*,#73,.T.);
#53=ORIENTED_EDGE('',*,*,#70,.F.);
#54=ORIENTED_EDGE('',*,*,#67,.F.);
#55=ORIENTED_EDGE('',*,*,#64,.F.);
#56=ORIENTED_EDGE('',*,*,#61,.F.);
#57=EDGE_CURVE('',#78,#79,#92,.T.);
#58=EDGE_CURVE('',#80,#79,#93,.T.);
#59=EDGE_CURVE('',#81,#80,#94,.T.);
#60=EDGE_CURVE('',#81,#78,#95,.T.);
#61=EDGE_CURVE('',#79,#82,#96,.T.);
#62=EDGE_CURVE('',#83,#82,#97,.T.);
#63=EDGE_CURVE('',#80,#83,#98,.T.);
#64=EDGE_CURVE('',#82,#84,#99,.T.);
#65=EDGE_CURVE('',#85,#84,#100,.T.);
#66=EDGE_CURVE('',#83,#85,#101,.T.);
#67=EDGE_CURVE('',#84,#86,#102,.T.);
#68=EDGE_CURVE('',#87,#86,#103,.T.);
#69=EDGE_CURVE('',#85,#87,#104,.T.);
#70=EDGE_CURVE('',#86,#88,#105,.T.);
#71=EDGE_CURVE('',#89,#88,#106,.T.);
#72=EDGE_CURVE('',#87,#89,#107,.T.);
#73=EDGE_CURVE('',#90,#88,#12,.T.);
#74=EDGE_CURVE('',#91,#90,#108,.T.);
#75=EDGE_CURVE('',#91,#89,#13,.T.);
#76=EDGE_CURVE('',#90,#78,#109,.T.);
#77=EDGE_CURVE('',#91,#81,#110,.T.);
#78=VERTEX_POINT('',#235);
#79=VERTEX_POINT('',#236);
#80=VERTEX_POINT('',#238);
#81=VERTEX_POINT('',#240);
#82=VERTEX_POINT('',#244);
#83=VERTEX_POINT('',#246);
#84=VERTEX_POINT('',#250);
#85=VERTEX_POINT('',#252);
#86=VERTEX_POINT('',#256);
#87=VERTEX_POINT('',#258);
#88=VERTEX_POINT('',#262);
#89=VERTEX_POINT('',#264);
#90=VERTEX_POINT('',#268);
#91=VERTEX_POINT('',#270);
#92=LINE('',#234,#111);
#93=LINE('',#237,#112);
#94=LINE('',#239,#113);
#95=LINE('',#241,#114);
#96=LINE('',#243,#115);
#97=LINE('',#245,#116);
#98=LINE('',#247,#117);
#99=LINE('',#249,#118);
#100=LINE('',#251,#119);
#101=LINE('',#253,#120);
#102=LINE('',#255,#121);
#103=LINE('',#257,#122);
#104=LINE('',#259,#123);
#105=LINE('',#261,#124);
#106=LINE('',#263,#125);
#107=LINE('',#265,#126);
#108=LINE('',#269,#127);
#109=LINE('',#273,#128);
#110=LINE('',#274,#129);
#111=VECTOR('',#193,1.);
#112=VECTOR('',#194,1.);
#113=VECTOR('',#195,1.);
#114=VECTOR('',#196,1.);
#115=VECTOR('',#199,1.);
#116=VECTOR('',#200,1.);
#117=VECTOR('',#201,1.);
#118=VECTOR('',#204,1.);
#119=VECTOR('',#205,1.);
#120=VECTOR('',#206,1.);
#121=VECTOR('',#209,1.);
#122=VECTOR('',#210,1.);
#123=VECTOR('',#211,1.);
#124=VECTOR('',#214,1.);
#125=VECTOR('',#215,1.);
#126=VECTOR('',#216,1.);
#127=VECTOR('',#221,1.);
#128=VECTOR('',#226,1.);
#129=VECTOR('',#227,1.);
#130=EDGE_LOOP('',(#15,#16,#17,#18));
#131=EDGE_LOOP('',(#19,#20,#21,#22));
#132=EDGE_LOOP('',(#23,#24,#25,#26));
#133=EDGE_LOOP('',(#27,#28,#29,#30));
#134=EDGE_LOOP('',(#31,#32,#33,#34));
#135=EDGE_LOOP('',(#35,#36,#37,#38));
#136=EDGE_LOOP('',(#39,#40,#41,#42));
#137=EDGE_LOOP('',(#43,#44,#45,#46,#47,#48,#49));
#138=EDGE_LOOP('',(#50,#51,#52,#53,#54,#55,#56));
#139=FACE_BOUND('',#130,.T.);
#140=FACE_BOUND('',#131,.T.);
#141=FACE_BOUND('',#132,.T.);
#142=FACE_BOUND('',#133,.T.);
#143=FACE_BOUND('',#134,.T.);
#144=FACE_BOUND('',#135,.T.);
#145=FACE_BOUND('',#136,.T.);
#146=FACE_BOUND('',#137,.T.);
#147=FACE_BOUND('',#138,.T.);
#148=PLANE('',#178);
#149=PLANE('',#179);
#150=PLANE('',#180);
#151=PLANE('',#181);
#152=PLANE('',#182);
#153=PLANE('',#186);
#154=PLANE('',#187);
#155=PLANE('',#188);
#156=ADVANCED_FACE('',(#139),#148,.F.);
#157=ADVANCED_FACE('',(#140),#149,.F.);
#158=ADVANCED_FACE('',(#141),#150,.F.);
#159=ADVANCED_FACE('',(#142),#151,.F.);
#160=ADVANCED_FACE('',(#143),#152,.F.);
#161=ADVANCED_FACE('',(#144),#14,.F.);
#162=ADVANCED_FACE('',(#145),#153,.F.);
#163=ADVANCED_FACE('',(#146),#154,.T.);
#164=ADVANCED_FACE('',(#147),#155,.F.);
#165=CLOSED_SHELL('',(#156,#157,#158,#159,#160,#161,#162,#163,#164));
#166=STYLED_ITEM('',(#167),#174);
#167=PRESENTATION_STYLE_ASSIGNMENT((#168));
#168=SURFACE_STYLE_USAGE(.BOTH.,#169);
#169=SURFACE_SIDE_STYLE('',(#170));
#170=SURFACE_STYLE_FILL_AREA(#171);
#171=FILL_AREA_STYLE('',(#172));
#172=FILL_AREA_STYLE_COLOUR('',#173);
#173=COLOUR_RGB('',0.615686274509804,0.811764705882353,0.929411764705882);
#174=MANIFOLD_SOLID_BREP('Part 1',#165);
#175=SHAPE_DEFINITION_REPRESENTATION(#283,#176);
#176=SHAPE_REPRESENTATION('Part 1',(#177),#278);
#177=AXIS2_PLACEMENT_3D('',#232,#189,#190);
#178=AXIS2_PLACEMENT_3D('',#233,#191,#192);
#179=AXIS2_PLACEMENT_3D('',#242,#197,#198);
#180=AXIS2_PLACEMENT_3D('',#248,#202,#203);
#181=AXIS2_PLACEMENT_3D('',#254,#207,#208);
#182=AXIS2_PLACEMENT_3D('',#260,#212,#213);
#183=AXIS2_PLACEMENT_3D('',#266,#217,#218);
#184=AXIS2_PLACEMENT_3D('',#267,#219,#220);
#185=AXIS2_PLACEMENT_3D('',#271,#222,#223);
#186=AXIS2_PLACEMENT_3D('',#272,#224,#225);
#187=AXIS2_PLACEMENT_3D('',#275,#228,#229);
#188=AXIS2_PLACEMENT_3D('',#276,#230,#231);
#189=DIRECTION('',(0.,0.,1.));
#190=DIRECTION('',(1.,0.,0.));
#191=DIRECTION('',(6.97851992602086E-17,0.,-1.));
#192=DIRECTION('',(-1.,0.,-6.97851992602086E-17));
#193=DIRECTION('',(1.,0.,6.97851992602086E-17));
#194=DIRECTION('',(0.,-1.,0.));
#195=DIRECTION('',(1.,0.,6.97851992602086E-17));
#196=DIRECTION('',(0.,-1.,0.));
#197=DIRECTION('',(-1.,0.,0.));
#198=DIRECTION('',(0.,0.,1.));
#199=DIRECTION('',(0.,0.,-1.));
#200=DIRECTION('',(0.,-1.,0.));
#201=DIRECTION('',(0.,0.,-1.));
#202=DIRECTION('',(0.,0.,1.));
#203=DIRECTION('',(1.,0.,0.));
#204=DIRECTION('',(-1.,0.,0.));
#205=DIRECTION('',(0.,-1.,0.));
#206=DIRECTION('',(-1.,0.,0.));
#207=DIRECTION('',(-0.74740931868366,0.,0.66436383882992));
#208=DIRECTION('',(0.66436383882992,0.,0.74740931868366));
#209=DIRECTION('',(-0.66436383882992,0.,-0.74740931868366));
#210=DIRECTION('',(0.,-1.,0.));
#211=DIRECTION('',(-0.66436383882992,0.,-0.74740931868366));
#212=DIRECTION('',(0.,0.,1.));
#213=DIRECTION('',(1.,0.,0.));
#214=DIRECTION('',(-1.,0.,0.));
#215=DIRECTION('',(0.,-1.,0.));
#216=DIRECTION('',(-1.,0.,0.));
#217=DIRECTION('',(0.,-1.,0.));
#218=DIRECTION('',(0.,0.,-1.));
#219=DIRECTION('',(0.,1.,0.));
#220=DIRECTION('',(0.,0.,1.));
#221=DIRECTION('',(0.,-1.,0.));
#222=DIRECTION('',(0.,1.,0.));
#223=DIRECTION('',(0.,0.,1.));
#224=DIRECTION('',(0.64278760968654,0.,-0.766044443118978));
#225=DIRECTION('',(-0.766044443118978,0.,-0.64278760968654));
#226=DIRECTION('',(0.766044443118978,0.,0.64278760968654));
#227=DIRECTION('',(0.766044443118978,0.,0.64278760968654));
#228=DIRECTION('',(0.,1.,0.));
#229=DIRECTION('',(-1.,0.,0.));
#230=DIRECTION('',(0.,1.,0.));
#231=DIRECTION('',(-1.,0.,0.));
#232=CARTESIAN_POINT('',(0.,0.,0.));
#233=CARTESIAN_POINT('',(0.224824293429115,-0.38794387641602,0.58204897325281));
#234=CARTESIAN_POINT('',(0.224824293429115,-0.38944387641602,0.58204897325281));
#235=CARTESIAN_POINT('',(0.0259599503458741,-0.38944387641602,0.58204897325281));
#236=CARTESIAN_POINT('',(0.423688636512356,-0.38944387641602,0.58204897325281));
#237=CARTESIAN_POINT('',(0.423688636512356,-0.38794387641602,0.58204897325281));
#238=CARTESIAN_POINT('',(0.423688636512356,-0.38794387641602,0.58204897325281));
#239=CARTESIAN_POINT('',(0.224824293429115,-0.38794387641602,0.58204897325281));
#240=CARTESIAN_POINT('',(0.0259599503458741,-0.38794387641602,0.58204897325281));
#241=CARTESIAN_POINT('',(0.0259599503458741,-0.38794387641602,0.58204897325281));
#242=CARTESIAN_POINT('',(0.423688636512356,-0.38794387641602,0.50704897325281));
#243=CARTESIAN_POINT('',(0.423688636512356,-0.38944387641602,0.50704897325281));
#244=CARTESIAN_POINT('',(0.423688636512356,-0.38944387641602,0.43204897325281));
#245=CARTESIAN_POINT('',(0.423688636512356,-0.38794387641602,0.43204897325281));
#246=CARTESIAN_POINT('',(0.423688636512356,-0.38794387641602,0.43204897325281));
#247=CARTESIAN_POINT('',(0.423688636512356,-0.38794387641602,0.50704897325281));
#248=CARTESIAN_POINT('',(0.363688636512356,-0.38794387641602,0.43204897325281));
#249=CARTESIAN_POINT('',(0.363688636512356,-0.38944387641602,0.43204897325281));
#250=CARTESIAN_POINT('',(0.303688636512356,-0.38944387641602,0.43204897325281));
#251=CARTESIAN_POINT('',(0.303688636512356,-0.38794387641602,0.43204897325281));
#252=CARTESIAN_POINT('',(0.303688636512356,-0.38794387641602,0.43204897325281));
#253=CARTESIAN_POINT('',(0.363688636512356,-0.38794387641602,0.43204897325281));
#254=CARTESIAN_POINT('',(0.263688636512356,-0.38794387641602,0.38704897325281));
#255=CARTESIAN_POINT('',(0.263688636512356,-0.38944387641602,0.38704897325281));
#256=CARTESIAN_POINT('',(0.223688636512356,-0.38944387641602,0.34204897325281));
#257=CARTESIAN_POINT('',(0.223688636512356,-0.38794387641602,0.34204897325281));
#258=CARTESIAN_POINT('',(0.223688636512356,-0.38794387641602,0.34204897325281));
#259=CARTESIAN_POINT('',(0.263688636512356,-0.38794387641602,0.38704897325281));
#260=CARTESIAN_POINT('',(0.0482262956715838,-0.38794387641602,0.34204897325281));
#261=CARTESIAN_POINT('',(0.0482262956715838,-0.38944387641602,0.34204897325281));
#262=CARTESIAN_POINT('',(-0.127236045169188,-0.38944387641602,0.34204897325281));
#263=CARTESIAN_POINT('',(-0.127236045169188,-0.38794387641602,0.34204897325281));
#264=CARTESIAN_POINT('',(-0.127236045169188,-0.38794387641602,0.34204897325281));
#265=CARTESIAN_POINT('',(0.0482262956715838,-0.38794387641602,0.34204897325281));
#266=CARTESIAN_POINT('',(-0.176225840024852,-0.38794387641602,0.35204897325281));
#267=CARTESIAN_POINT('',(-0.176225840024852,-0.38944387641602,0.35204897325281));
#268=CARTESIAN_POINT('',(-0.19134533345326,-0.38944387641602,0.399708189764083));
#269=CARTESIAN_POINT('',(-0.19134533345326,-0.38794387641602,0.399708189764083));
#270=CARTESIAN_POINT('',(-0.19134533345326,-0.38794387641602,0.399708189764083));
#271=CARTESIAN_POINT('',(-0.176225840024852,-0.38794387641602,0.35204897325281));
#272=CARTESIAN_POINT('',(-0.0960035826677503,-0.38794387641602,0.479709417684));
#273=CARTESIAN_POINT('',(-0.0960035826677503,-0.38944387641602,0.479709417684));
#274=CARTESIAN_POINT('',(-0.0960035826677503,-0.38794387641602,0.479709417684));
#275=CARTESIAN_POINT('',(0.093731398243752,-0.38794387641602,0.46204897325281));
#276=CARTESIAN_POINT('',(0.093731398243752,-0.38944387641602,0.46204897325281));
#277=MECHANICAL_DESIGN_GEOMETRIC_PRESENTATION_REPRESENTATION('',(#166),
#278);
#278=(
GEOMETRIC_REPRESENTATION_CONTEXT(3)
GLOBAL_UNCERTAINTY_ASSIGNED_CONTEXT((#279))
GLOBAL_UNIT_ASSIGNED_CONTEXT((#282,#281,#280))
REPRESENTATION_CONTEXT('Part 1','TOP_LEVEL_ASSEMBLY_PART')
);
#279=UNCERTAINTY_MEASURE_WITH_UNIT(LENGTH_MEASURE(1.E-8),#282,
'DISTANCE_ACCURACY_VALUE','Maximum Tolerance applied to model');
#280=(
NAMED_UNIT(*)
SI_UNIT($,.STERADIAN.)
SOLID_ANGLE_UNIT()
);
#281=(
NAMED_UNIT(*)
PLANE_ANGLE_UNIT()
SI_UNIT($,.RADIAN.)
);
#282=(
LENGTH_UNIT()
NAMED_UNIT(*)
SI_UNIT($,.METRE.)
);
#283=PRODUCT_DEFINITION_SHAPE('','',#284);
#284=PRODUCT_DEFINITION('','',#286,#285);
#285=PRODUCT_DEFINITION_CONTEXT('',#292,'design');
#286=PRODUCT_DEFINITION_FORMATION_WITH_SPECIFIED_SOURCE('','',#288,
 .NOT_KNOWN.);
#287=PRODUCT_RELATED_PRODUCT_CATEGORY('','',(#288));
#288=PRODUCT('Part 1','Part 1','Part 1',(#290));
#289=PRODUCT_CATEGORY('','');
#290=PRODUCT_CONTEXT('',#292,'mechanical');
#291=APPLICATION_PROTOCOL_DEFINITION('international standard',
'ap242_managed_model_based_3d_engineering',2011,#292);
#292=APPLICATION_CONTEXT('managed model based 3d engineering');
ENDSEC;
END-ISO-10303-21;
